<?xml version="1.0" standalone="no"?><svg xmlns="http://www.w3.org/2000/svg" viewBox="0 0 1440 320"><path fill="#FBC02D" fill-opacity="1" d="M0,160L21.8,149.3C43.6,139,87,117,131,101.3C174.5,85,218,75,262,96C305.5,117,349,171,393,160C436.4,149,480,75,524,58.7C567.3,43,611,85,655,128C698.2,171,742,213,785,197.3C829.1,181,873,107,916,101.3C960,96,1004,160,1047,202.7C1090.9,245,1135,267,1178,261.3C1221.8,256,1265,224,1309,186.7C1352.7,149,1396,107,1418,85.3L1440,64L1440,320L1418.2,320C1396.4,320,1353,320,1309,320C1265.5,320,1222,320,1178,320C1134.5,320,1091,320,1047,320C1003.6,320,960,320,916,320C872.7,320,829,320,785,320C741.8,320,698,320,655,320C610.9,320,567,320,524,320C480,320,436,320,393,320C349.1,320,305,320,262,320C218.2,320,175,320,131,320C87.3,320,44,320,22,320L0,320Z"></path></svg>