<?xml version="1.0" standalone="no"?><svg xmlns="http://www.w3.org/2000/svg" viewBox="0 0 1440 320"><path fill="#fbcc0b" fill-opacity="0.5" d="M0,96L30,85.3C60,75,120,53,180,69.3C240,85,300,139,360,133.3C420,128,480,64,540,74.7C600,85,660,171,720,176C780,181,840,107,900,64C960,21,1020,11,1080,48C1140,85,1200,171,1260,192C1320,213,1380,171,1410,149.3L1440,128L1440,320L1410,320C1380,320,1320,320,1260,320C1200,320,1140,320,1080,320C1020,320,960,320,900,320C840,320,780,320,720,320C660,320,600,320,540,320C480,320,420,320,360,320C300,320,240,320,180,320C120,320,60,320,30,320L0,320Z"></path></svg>